# xmcd
#
# Track frame offsets:
#	150
#	15701
#	36297
#	52927
#	68576
#	87771
#	111977
#	125931
#	141309
#	157287
#	176866
#	198320
#	215101
#	228379
#	241657
#	260162
#	275766
#	295793
#
# Disc length: 4142 seconds
#
# Revision: 2
# Processed by: cddbd v1.5.2PL0 Copyright (c) Steve Scherf et al.
# Submitted via: audiograbber 1.83.01
#
DISCID=1c102c12
DTITLE=Various Artist - Promo Only Country Radio 2011 - 03
DYEAR=2011
DGENRE=Country
TTITLE0=David Adam Byrnes - Sweet Distraction
TTITLE1=Zac Brown Band - Colder Weather (Album Version)
TTITLE2=The Dirt Drifters - Something Better
TTITLE3=Joanna Smith - Georgia Mud
TTITLE4=David Bradley ft. Rodney Crowell - Hard Time Movin' on
TTITLE5=Jamey Johnson - Heartache (Album Version)
TTITLE6=Jenny and Ashley - Indescribable
TTITLE7=Jacob Lyda - I'm Doing Alright
TTITLE8=Reba McEntire - If I Were A Boy
TTITLE9=Aaron Lewis - Country Boy (Smoke Free Radio Edit)
TTITLE10=Aaron Lewis ft. G. Jones, C. Young and C. Daniels - Country Boy (Smoke F
TTITLE10=ree Album Version)
TTITLE11=David Nail - Let it Rain
TTITLE12=The Grascals ft. Dolly Parton - I Am Strong
TTITLE13=The Grascals and Friends - I Am Strong
TTITLE14=Jeff Bates - One Day Closer
TTITLE15=Carter's Chrod - A Little Less Comfortable
TTITLE16=Carrie Elkin - Jesse Likes Birds
TTITLE17=Darius Rucker - Together, Anything's Possible
EXTD=
EXTT0=
EXTT1=
EXTT2=
EXTT3=
EXTT4=
EXTT5=
EXTT6=
EXTT7=
EXTT8=
EXTT9=
EXTT10=
EXTT11=
EXTT12=
EXTT13=
EXTT14=
EXTT15=
EXTT16=
EXTT17=
PLAYORDER=
